<?xml version="1.0" encoding="utf-8"?>
<!-- Generator: Adobe Illustrator 25.1.0, SVG Export Plug-In . SVG Version: 6.00 Build 0)  -->
<svg version="1.1" id="Calque_1" xmlns="http://www.w3.org/2000/svg" xmlns:xlink="http://www.w3.org/1999/xlink" x="0px" y="0px"
	 viewBox="0 0 3292 984" style="enable-background:new 0 0 3292 984;" xml:space="preserve">
<style type="text/css">
	.st0{fill:#FFFFFF;}
</style>
<g>
	<path class="st0" d="M1421.8,390v204.1h44.4V390L1421.8,390L1421.8,390z"/>
	<polygon class="st0" points="2709.7,549.8 2739.3,549.8 2739.3,390 2783.6,390 2783.6,594 2695.2,594 2486.5,434 2461,434 
		2461,594 2416.6,594 2416.6,390 2501,390 	"/>
	<polygon class="st0" points="2341.5,594 2269.5,594 2060.8,434 2035.2,434 2035.2,594 1990.9,594 1990.9,390 2075.3,390 	"/>
	<polygon class="st0" points="1854.1,389.4 1735.5,550 1721.5,550 1602.8,389.4 1547.6,389.4 1698.8,594 1758.2,594 1909.4,389.4 	
		"/>
	<polygon class="st0" points="961,594 1006.1,594 1006.1,514.7 1142.4,514.7 1264.1,594 1346.7,594 1225,514.7 1320.6,514.7 
		1320.6,389.4 961,389.4 961,434.5 1277.6,434.5 1277.6,469.5 961,469.5 	"/>
	<polygon class="st0" points="508.4,594 885.9,594 885.9,549 553.5,549 553.5,514.3 885.9,514.3 885.9,469.2 553.5,469.2 
		553.5,434.6 885.9,434.6 885.9,389.5 508.4,389.5 	"/>
</g>
</svg>
