<svg width="63" height="81" viewBox="0 0 63 81" fill="none" xmlns="http://www.w3.org/2000/svg">
<path d="M0.5 0V81H62.5V0H0.5ZM29.1813 59.888C13.9598 59.888 4.31934 76.0113 4.31934 76.0113C4.31934 76.0113 5.80463 70.1106 10.3513 63.3515C19.0439 50.4308 24.5621 35.6001 26.8933 20.1577C28.1595 11.769 29.1827 4.99008 29.1827 4.99008V59.888H29.1813ZM33.8187 59.888C33.8187 58.4135 33.8187 4.99008 33.8187 4.99008C33.8187 4.99008 34.8419 11.769 36.1081 20.1577C38.4393 35.6001 43.9561 50.4308 52.6501 63.3515C57.1968 70.1092 58.6821 76.0113 58.6821 76.0113C58.6821 76.0113 49.0402 59.888 33.8201 59.888H33.8187Z" fill="white"/>
</svg>
