<svg width="218" height="44" viewBox="0 0 218 44" fill="none" xmlns="http://www.w3.org/2000/svg">
<g clip-path="url(#clip0_15_2)">
<path d="M115.052 14.3257V29.6747H118.421V14.3257H115.052V14.3257Z" fill="white"/>
<path d="M212.856 26.3477H215.105V14.3257H218.474V29.6747H211.761L195.91 17.6406H193.971V29.6747H190.602V14.3257H197.013L212.856 26.3477Z" fill="white"/>
<path d="M184.899 29.6747H179.431L163.579 17.6406H161.64V29.6747H158.271V14.3257H164.683L184.899 29.6747Z" fill="white"/>
<path d="M147.883 14.2827L138.876 26.3634H137.817L128.802 14.2827H124.605L136.089 29.6746H140.603L152.08 14.2827H147.883Z" fill="white"/>
<path d="M80.0586 29.6746H83.4836V23.7042H93.8382L103.08 29.6746H109.349L100.108 23.7042H107.367V14.2827H80.0586V17.6751H104.102V20.3118H80.0586V29.6746Z" fill="white"/>
<path d="M45.6865 29.6745H74.3553V26.2828H49.1115V23.6808H74.3553V20.2884H49.1115V17.6863H74.3553V14.2947H45.6865V29.6745Z" fill="white"/>
<path d="M-0.474609 0.393311V43.6066H33.2541V0.393311H-0.474609ZM15.1284 32.3434C6.84769 32.3434 1.60315 40.9452 1.60315 40.9452C1.60315 40.9452 2.41117 37.7971 4.8846 34.1912C9.61348 27.298 12.6155 19.3859 13.8837 11.1474C14.5725 6.67203 15.1291 3.05551 15.1291 3.05551V32.3434H15.1284ZM17.6511 32.3434C17.6511 31.5568 17.6511 3.05551 17.6511 3.05551C17.6511 3.05551 18.2078 6.67203 18.8966 11.1474C20.1648 19.3859 23.166 27.298 27.8957 34.1912C30.3691 37.7964 31.1771 40.9452 31.1771 40.9452C31.1771 40.9452 25.9318 32.3434 17.6519 32.3434H17.6511Z" fill="white"/>
</g>
<defs>
<clipPath id="clip0_15_2">
<rect width="218" height="44" fill="white"/>
</clipPath>
</defs>
</svg>
