<?xml version="1.0" encoding="UTF-8"?> <svg xmlns="http://www.w3.org/2000/svg" id="Layer_1" data-name="Layer 1" viewBox="0 0 220 75"><defs><style>.cls-1{fill:none;}.cls-2{fill:#8bc241;}.cls-3{fill:#283d8d;}.cls-4{fill:#263a7f;}.cls-5{fill:#fff;}</style></defs><title>au-second-lieu-logo-220x75</title><polygon class="cls-1" points="71.87 34.75 75.82 34.75 73.85 29.68 71.87 34.75"></polygon><path class="cls-1" d="M185,26.22a7.55,7.55,0,0,0-2.5,1.16,12.44,12.44,0,0,0-2.91,2.93,18.68,18.68,0,0,0-2,3.62,7.85,7.85,0,0,0-.54,1.7,2.91,2.91,0,0,0-.09.92,1.72,1.72,0,0,0,.3.89A7.58,7.58,0,0,0,180,35.85a22.39,22.39,0,0,0,3.17-3.06q1.42-1.68,2.69-3.5A1.38,1.38,0,0,0,186,29c.14-.41.29-.83.43-1.25s.28-.84.4-1.25A2.37,2.37,0,0,0,185,26.22Z"></path><path class="cls-1" d="M154.24,24a4.16,4.16,0,0,0-.85-1.55A1.34,1.34,0,0,0,152.3,22a3.41,3.41,0,0,0-1.92.84,6.47,6.47,0,0,0-1.28,1.39,12.34,12.34,0,0,0-.92,1.61l.34.42.31.38a.91.91,0,0,1,.29.63c0,.16-.18.33-.47.53a1.75,1.75,0,0,1-.22.18,2.31,2.31,0,0,0-.71.72,1.27,1.27,0,0,0-.05,1v.18a14.2,14.2,0,0,0,.47,1.76,4.7,4.7,0,0,0,.91,1.57,2.68,2.68,0,0,0,2,1.09.66.66,0,0,0,.68-.33c.24-.41.49-.81.73-1.21s.47-.8.68-1.21a14.44,14.44,0,0,0,1.07-2.82,9.73,9.73,0,0,0,.31-3A7.18,7.18,0,0,0,154.24,24Z"></path><path class="cls-1" d="M146.22,31.86a11.45,11.45,0,0,0-.47,2,9.3,9.3,0,0,0-.07,2,2.65,2.65,0,0,0,.54,1.63,1.26,1.26,0,0,0,1,.38,3.06,3.06,0,0,0,1.31-.51,7.83,7.83,0,0,0,1.32-1.07l.83-.94a7.53,7.53,0,0,1-2.62-1.21A6.49,6.49,0,0,1,146.22,31.86Z"></path><path class="cls-1" d="M120.75,32.08a17.16,17.16,0,0,0,2.53-1.79,10.41,10.41,0,0,0,2-2.37,7.8,7.8,0,0,0,.57-1.07,5.15,5.15,0,0,0,.37-1.17c0-.2.07-.39.09-.58a1,1,0,0,0-.17-.58,3.5,3.5,0,0,0-1.21.54,6.88,6.88,0,0,0-1.1.92,11,11,0,0,0-.94,1.11c-.29.38-.55.73-.76,1.05a17.45,17.45,0,0,0-1.29,2.08c-.37.71-.73,1.45-1.07,2.22l.08.08Z"></path><path class="cls-1" d="M197.79,13a20.12,20.12,0,0,0-1.24,1.72q-.68,1-1.38,2.19c-.47.78-.9,1.55-1.3,2.31s-.74,1.47-1,2.12a8.24,8.24,0,0,0-.52,1.56h0a1.54,1.54,0,0,0,.25-.26,27,27,0,0,0,2.69-3.29c.81-1.16,1.57-2.37,2.27-3.62.14-.27.27-.54.38-.81s.22-.55.34-.82a9.36,9.36,0,0,0,.31-1,3.43,3.43,0,0,0,.09-1A4,4,0,0,0,197.79,13Z"></path><polygon class="cls-2" points="119.56 43.81 115.24 43.81 115.24 65.24 125.86 65.24 125.86 61.35 119.56 61.35 119.56 43.81"></polygon><rect class="cls-2" x="128.84" y="43.81" width="4.29" height="21.43"></rect><polygon class="cls-2" points="138.01 65.24 150.41 65.24 150.41 61.24 142.31 61.24 142.31 55.6 150.41 55.6 150.41 51.68 142.31 51.68 142.31 47.81 150.41 47.81 150.41 43.81 138.01 43.81 138.01 65.24"></polygon><path class="cls-2" d="M166.38,44.42a2.4,2.4,0,0,1-.62-.61h-.43V57.16a8.85,8.85,0,0,1-.32,2.92,2.65,2.65,0,0,1-1.14,1.26,3.77,3.77,0,0,1-2,.5,3.6,3.6,0,0,1-1.85-.45A2.56,2.56,0,0,1,159,60.2a6.79,6.79,0,0,1-.33-2.53V43.81h-4.34V56.59a13.29,13.29,0,0,0,.79,5.44,6.27,6.27,0,0,0,2.61,2.68,8.32,8.32,0,0,0,4.3,1.07,8.86,8.86,0,0,0,3.31-.56,7,7,0,0,0,2.51-1.72,6.44,6.44,0,0,0,1.47-2.42,17.38,17.38,0,0,0,.39-4.49V44.19a2.63,2.63,0,0,1-1.43.69A2.71,2.71,0,0,1,166.38,44.42Z"></path><path class="cls-2" d="M80.94,40.53,75.26,25.76H72.41l-5.7,14.77h2.92l1.21-3h6l1.16,3Zm-9.07-5.78,2-5.07,2,5.07Z"></path><path class="cls-2" d="M84.72,40.17a5.19,5.19,0,0,0,2.79.74,5.47,5.47,0,0,0,2.15-.39,4.49,4.49,0,0,0,1.63-1.19,4.21,4.21,0,0,0,1-1.67,12.63,12.63,0,0,0,.25-3.09V25.76H89.68V35a6.72,6.72,0,0,1-.2,2,1.75,1.75,0,0,1-.75.87,2.31,2.31,0,0,1-1.28.34,2.27,2.27,0,0,1-1.2-.3,1.76,1.76,0,0,1-.71-.82,5,5,0,0,1-.22-1.75V25.76H82.5v8.81A9.79,9.79,0,0,0,83,38.32,4.32,4.32,0,0,0,84.72,40.17Z"></path><path class="cls-3" d="M117.57,18.77c.2-.49.41-1,.63-1.45a1.68,1.68,0,0,0,.11-.71,1.53,1.53,0,0,0-.23-.71,4.48,4.48,0,0,0-1.22-1.3,2.59,2.59,0,0,0-1.68-.46,7.67,7.67,0,0,0-1.17.08l-1.17.17a26.23,26.23,0,0,0-6.29,1.74,23.2,23.2,0,0,0-5.62,3.33,24.57,24.57,0,0,0-2.54,2.31,12.34,12.34,0,0,0-2,2.81,11.7,11.7,0,0,0-1.13,3.1,9,9,0,0,0,0,3.35,11.21,11.21,0,0,0,.58,2c.26.63.54,1.26.84,1.87A28.11,28.11,0,0,0,98.52,38c.68,1,1.39,1.94,2.12,2.89s1.51,1.95,2.26,2.9a35.28,35.28,0,0,1,2.14,3c.33.56.64,1.14.92,1.74a11.59,11.59,0,0,1,.67,1.87,5.41,5.41,0,0,1-1.09,5,6.36,6.36,0,0,1-1.68,1.51,10,10,0,0,1-2.41,1.34,14,14,0,0,1-2.62.76,18.07,18.07,0,0,1-2.41.25A7.74,7.74,0,0,1,94,59a7.29,7.29,0,0,1-3.08-1.63,5.73,5.73,0,0,1-1.66-3.1,6.1,6.1,0,0,1-.12-1.89,14.71,14.71,0,0,1,.29-1.89c.11-.36.22-.72.34-1.07a4.19,4.19,0,0,1,.5-1,6.1,6.1,0,0,1,1.47.25,1.9,1.9,0,0,1,1.09,1l.12.2a.77.77,0,0,0,.42.17c.11,0,.2-.15.25-.37a1.2,1.2,0,0,0,.05-.38,5.4,5.4,0,0,0-1-2.25,3.56,3.56,0,0,0-2.18-1.36,6.71,6.71,0,0,0-1.64-.21c-.53,0-1.07,0-1.63,0-1.2.06-2.4.17-3.58.34s-2.37.36-3.55.59q-.63.07-1.26.21l-1.25.25a.69.69,0,0,0-.63.5,1.39,1.39,0,0,0,0,.88,2.32,2.32,0,0,0,.44.76,2.2,2.2,0,0,0,.69.52,1.4,1.4,0,0,0,.86.11l4.82-.8,2.77-.38c-.08.48-.18.94-.27,1.38s-.18.88-.23,1.3a7.14,7.14,0,0,0,1.88,6.08A10.85,10.85,0,0,0,92,60a16.63,16.63,0,0,0,4.82,1.11,12.53,12.53,0,0,0,3.06,0,17.16,17.16,0,0,0,3-.65,26.1,26.1,0,0,0,3-1.09,10.78,10.78,0,0,0,2.67-1.67,7.32,7.32,0,0,0,2.38-3.42,6.27,6.27,0,0,0-.33-4.34,17.67,17.67,0,0,0-2.47-4.23c-.81-1.07-1.65-2.12-2.5-3.17L103,39.38c-.67-.84-1.32-1.71-2-2.6a19.21,19.21,0,0,1-1.65-2.85,8.56,8.56,0,0,1,.21-8.1A12.68,12.68,0,0,1,100.82,24a14,14,0,0,1,1.53-1.64,21.84,21.84,0,0,1,4.89-3.5,23.86,23.86,0,0,1,5.64-2.07l1-.17,1.09-.17-.25.63-2.56,5.49c-.3.66-.39.83-.41.86s0,0,0,0-.1.27-.33.84c-.77,1.88-1.46,3.82-2.08,5.8q-.42,1.35-.69,2.67a10.56,10.56,0,0,0-.19,2.7,5.74,5.74,0,0,0,.57,2.14,3.88,3.88,0,0,0,1.53,1.59,2.82,2.82,0,0,0,.46.23c.17.07.29.08.38,0a.36.36,0,0,0,.21-.44c-.06-.18-.11-.34-.17-.48a5.23,5.23,0,0,1-.44-2.14,10,10,0,0,1,.27-2.14,36,36,0,0,1,1.09-3.56c.42-1.14.88-2.29,1.39-3.44.81-1.84-.08.28.76-1.52s1.66-3.62,2.47-5.43C117.17,19.74,117.38,19.26,117.57,18.77Z"></path><path class="cls-3" d="M199.71,11.38a3,3,0,0,0-.83-.8,1.49,1.49,0,0,0-1-.25,2.59,2.59,0,0,0-1,.36l-.42.29a3.9,3.9,0,0,0-.38.33c-.38.34-.76.68-1.12,1a10,10,0,0,0-1,1.14,37.46,37.46,0,0,0-5.07,8.11l-1.7,3.69h0l-.39-.36a4.37,4.37,0,0,0-1.67-.93,3.38,3.38,0,0,0-1.88.09,14.61,14.61,0,0,0-1.67.69,8,8,0,0,0-1.52,1,22.48,22.48,0,0,0-2.15,2.1,12.59,12.59,0,0,0-1.72,2.5c-.38.7-.73,1.41-1.05,2.12a9,9,0,0,0-.55,1.71L170.9,40a17.24,17.24,0,0,1-1.06,1.44c-.38.46-.77.91-1.18,1.34l-.14.13-.26.2q.11-.51.18-.9c.05-.27.11-.54.18-.8.41-1.52.88-3,1.42-4.43s1.07-2.88,1.62-4.33c.44-1.13.87-2.26,1.29-3.38s.8-2.27,1.14-3.42a4,4,0,0,0,.2-.84c0-.29.08-.56.12-.83a.85.85,0,0,0-.36-.9,2.7,2.7,0,0,0-1.55-.58.81.81,0,0,0-.65.29q-2.32,2.31-4.71,4.59a38.11,38.11,0,0,0-4.45,5.11l-.43.54c0-.12,0-.21.05-.27a1.15,1.15,0,0,0,0-.16c.17-.51.34-1,.5-1.54s.33-1,.47-1.54l1.52-5a.92.92,0,0,0-.32-1,2.54,2.54,0,0,0-1.59-.65.8.8,0,0,0-.87.36l-.49.71a4.44,4.44,0,0,0-.42.74,36.21,36.21,0,0,0-1.79,4.25l-.27.84c-.19.23-.39.47-.61.7a14.09,14.09,0,0,1-1.13,1.07,8.09,8.09,0,0,1-1.17.83,4.7,4.7,0,0,1-1.18.49l.62-1.34a11,11,0,0,0,1.05-5.65,5.77,5.77,0,0,0-3.44-5.1,4.23,4.23,0,0,0-4.53.4,8.17,8.17,0,0,0-1.44,1.37,7.31,7.31,0,0,0-1,1.71,8.88,8.88,0,0,1-.63,1.19,7.77,7.77,0,0,1-.81,1.05,10.35,10.35,0,0,0-2,3.42s0,0,0,0a18.6,18.6,0,0,1-1.29,1.64l-1.74,2c-.46.5-.92,1-1.39,1.44a12.68,12.68,0,0,1-1.54,1.27,8.32,8.32,0,0,1-1.28.81,6.6,6.6,0,0,1-1.4.53,4.5,4.5,0,0,1-.87.18,1.18,1.18,0,0,1-.61-.09,1.08,1.08,0,0,1-.45-.47,4,4,0,0,1-.38-1,6,6,0,0,1,.07-3.33,14.5,14.5,0,0,1,3.62-6.36,7.48,7.48,0,0,1,2.2-1.56l-.18.69q-.21.8-.39,1.59a5.9,5.9,0,0,0-.15,1.63,3,3,0,0,0,.54,1.55,2.09,2.09,0,0,0,1.23.84c.51.12.69-.06.55-.55a3,3,0,0,1,0-1.34,12.83,12.83,0,0,1,.47-1.8,15.6,15.6,0,0,1,.68-1.71,1.77,1.77,0,0,0,.22-1,1.72,1.72,0,0,0-.32-.83,4,4,0,0,0-.62-.62,4.88,4.88,0,0,0-1.95-1,3.37,3.37,0,0,0-2.17.27,6.5,6.5,0,0,0-2.14,1.34,11.94,11.94,0,0,0-2.5,2.93,15.81,15.81,0,0,0-1.55,3.51,9.19,9.19,0,0,0-.35,1.42,11.1,11.1,0,0,1-1,1.19c-.58.62-1.18,1.23-1.81,1.81a9.29,9.29,0,0,1-1.06.95c-.47.38-1,.75-1.58,1.13a19.59,19.59,0,0,1-1.77,1,6.68,6.68,0,0,1-1.65.6,1.71,1.71,0,0,1-1.23-.15,1.28,1.28,0,0,1-.49-1.19,5.37,5.37,0,0,1,.08-1.5,12.43,12.43,0,0,1,.39-1.51l1.13-.36a13.33,13.33,0,0,0,6.66-5.46,7.22,7.22,0,0,0,1-2.43,3.5,3.5,0,0,0,.1-1.1,1.88,1.88,0,0,0-.43-1,4.19,4.19,0,0,0-1.41-1.2,2.88,2.88,0,0,0-1.81-.21,5.2,5.2,0,0,0-.82.21,7.75,7.75,0,0,0-.77.33,8.64,8.64,0,0,0-1.49.92A8,8,0,0,0,120,25.31a25.57,25.57,0,0,0-2.3,3.12A17.15,17.15,0,0,0,116,31.9a12.65,12.65,0,0,0-.54,2.05,6.77,6.77,0,0,0,0,2.11,4.59,4.59,0,0,0,.66,2,4.33,4.33,0,0,0,1.25,1.27,4.5,4.5,0,0,0,1.56.63,5.63,5.63,0,0,0,1.63.09,5.43,5.43,0,0,0,1.16-.25,7.21,7.21,0,0,0,1.08-.47A12.34,12.34,0,0,0,124.93,38c.66-.49,1.3-1,1.93-1.57A16,16,0,0,0,129,34.29a7,7,0,0,0,.14.9,4.66,4.66,0,0,0,3.58,3.91,4.42,4.42,0,0,0,1.59.15,5.9,5.9,0,0,0,1.52-.36,10.3,10.3,0,0,0,2.25-1.27A11.64,11.64,0,0,0,140,35.88c.81-.93,1.57-1.84,2.3-2.75,0,.28,0,.57,0,.87a6.07,6.07,0,0,0,.36,2.08,6.17,6.17,0,0,0,2.63,3.19,5.18,5.18,0,0,0,2,.7,3.76,3.76,0,0,0,1.64-.14,4.81,4.81,0,0,0,1.47-.8A13.57,13.57,0,0,0,152,37.47a19,19,0,0,0,1.39-1.77,1.66,1.66,0,0,1,.36-.38,2.29,2.29,0,0,1,.47-.23c.31-.12.62-.25.92-.39a5.26,5.26,0,0,0,.85-.45,12.65,12.65,0,0,0,2.32-1.83L158,33.57a21.89,21.89,0,0,0-.56,2.58,18.22,18.22,0,0,0-.2,2.66,1.61,1.61,0,0,0,.22,1,1.74,1.74,0,0,0,.87.45,1.64,1.64,0,0,0,.38.1,2.32,2.32,0,0,1,.38,0,1,1,0,0,0,1.05-.58l.43-.69c.75-1.18,1.49-2.36,2.23-3.54S164.27,33.2,165,32c.65-1,1.35-1.89,2.08-2.78a25.53,25.53,0,0,1,2.37-2.5l.62-.54.07.07a2.32,2.32,0,0,1-.14.33l-1.78,3.94c-.58,1.35-1.11,2.7-1.59,4a26,26,0,0,0-1.12,4.18,17.25,17.25,0,0,0-.27,1.73,9.2,9.2,0,0,0,0,1.74,4.22,4.22,0,0,0,.31,1.21,2,2,0,0,0,.19.35,2.4,2.4,0,0,0,.62.61,2.71,2.71,0,0,0,1.86.46,2.63,2.63,0,0,0,1.43-.69c.07-.08.15-.15.22-.24.58-.7,1.14-1.42,1.67-2.15A23.85,23.85,0,0,0,173,39.54l1.63-2.89A3.28,3.28,0,0,0,177,38.7a3.2,3.2,0,0,0,1.74,0,5,5,0,0,0,1.07-.4,6.49,6.49,0,0,0,1-.62,18.45,18.45,0,0,0,1.9-1.62,15.66,15.66,0,0,0,1.64-1.89,2.21,2.21,0,0,0,.26-.28c.07-.1.15-.21.25-.33a.48.48,0,0,1,0,.4q0,.69-.09,1.35c0,.45-.06.89-.06,1.33a5.56,5.56,0,0,0,.29,1.73,1.81,1.81,0,0,0,.58.82,2.31,2.31,0,0,0,.87.41,2,2,0,0,0,1,0,1.71,1.71,0,0,0,.85-.47,10.11,10.11,0,0,0,1.48-1.59c.58-.77,1.15-1.56,1.7-2.35l1.67-2.39c.26-.39.51-.77.74-1.16s.45-.78.67-1.19a2.05,2.05,0,0,0,.22-.62.48.48,0,0,0-.17-.41.35.35,0,0,0-.41,0,1.62,1.62,0,0,0-.36.2,2.16,2.16,0,0,0-.33.27,3.25,3.25,0,0,0-.25.34c-.07.11-.15.22-.22.35-.7,1.08-1.42,2.13-2.15,3.14s-1.53,2-2.37,2.94l-.73.72v-.44c.39-1.73.82-3.44,1.31-5.12s1-3.34,1.66-5a1.55,1.55,0,0,1,.36-.51,23.42,23.42,0,0,0,2.16-2.06c.66-.72,1.3-1.47,1.93-2.24a32.22,32.22,0,0,0,4.27-7.17A5.74,5.74,0,0,0,200,12.5,1.69,1.69,0,0,0,199.71,11.38ZM120.87,30.22a17.45,17.45,0,0,1,1.29-2.08c.21-.32.47-.67.76-1.05a11,11,0,0,1,.94-1.11,6.88,6.88,0,0,1,1.1-.92,3.5,3.5,0,0,1,1.21-.54,1,1,0,0,1,.17.58c0,.19,0,.38-.09.58a5.15,5.15,0,0,1-.37,1.17,7.8,7.8,0,0,1-.57,1.07,10.41,10.41,0,0,1-2,2.37,17.16,17.16,0,0,1-2.53,1.79l-.87.44-.08-.08C120.14,31.67,120.5,30.93,120.87,30.22Zm29,6a7.83,7.83,0,0,1-1.32,1.07,3.06,3.06,0,0,1-1.31.51,1.26,1.26,0,0,1-1-.38,2.65,2.65,0,0,1-.54-1.63,9.3,9.3,0,0,1,.07-2,11.45,11.45,0,0,1,.47-2,6.49,6.49,0,0,0,1.87,2.23,7.53,7.53,0,0,0,2.62,1.21Zm4.32-7.52a14.44,14.44,0,0,1-1.07,2.82c-.21.41-.44.81-.68,1.21s-.49.8-.73,1.21a.66.66,0,0,1-.68.33,2.68,2.68,0,0,1-2-1.09,4.7,4.7,0,0,1-.91-1.57,14.2,14.2,0,0,1-.47-1.76v-.18a1.27,1.27,0,0,1,.05-1,2.31,2.31,0,0,1,.71-.72,1.75,1.75,0,0,0,.22-.18c.29-.2.44-.37.47-.53a.91.91,0,0,0-.29-.63l-.31-.38-.34-.42a12.34,12.34,0,0,1,.92-1.61,6.47,6.47,0,0,1,1.28-1.39A3.41,3.41,0,0,1,152.3,22a1.34,1.34,0,0,1,1.09.44,4.16,4.16,0,0,1,.85,1.55,7.18,7.18,0,0,1,.27,1.74A9.73,9.73,0,0,1,154.2,28.72Zm32.19-1c-.14.42-.29.84-.43,1.25a1.38,1.38,0,0,1-.15.32q-1.26,1.82-2.69,3.5A22.39,22.39,0,0,1,180,35.85a7.58,7.58,0,0,1-2.68,1.59,1.72,1.72,0,0,1-.3-.89,2.91,2.91,0,0,1,.09-.92,7.85,7.85,0,0,1,.54-1.7,18.68,18.68,0,0,1,2-3.62,12.44,12.44,0,0,1,2.91-2.93,7.55,7.55,0,0,1,2.5-1.16,2.37,2.37,0,0,1,1.77.25C186.67,26.88,186.54,27.3,186.39,27.72Zm12.22-14.57a9.36,9.36,0,0,1-.31,1c-.12.27-.24.54-.34.82s-.24.54-.38.81c-.7,1.25-1.46,2.46-2.27,3.62a27,27,0,0,1-2.69,3.29,1.54,1.54,0,0,1-.25.26h0a8.24,8.24,0,0,1,.52-1.56c.28-.65.62-1.36,1-2.12s.83-1.53,1.3-2.31.93-1.52,1.38-2.19A20.12,20.12,0,0,1,197.79,13a4,4,0,0,1,.91-.89A3.43,3.43,0,0,1,198.61,13.15Z"></path><path class="cls-2" d="M39.32,52A37.4,37.4,0,0,1,24.55,59a24.62,24.62,0,0,0,2.21,1.19,37.52,37.52,0,0,0,13.55-6.71C41.16,52.75,40.19,51.32,39.32,52Z"></path><path class="cls-2" d="M29.48,14.46a34.86,34.86,0,0,1,12.2-5,26.75,26.75,0,0,0-3.37-.21h0c-.85,0-1.69.06-2.53.14l-.29.1a32.5,32.5,0,0,0-7,3.57A.87.87,0,0,0,29.48,14.46Z"></path><path class="cls-2" d="M47.12,42c2.36-2.61,5-8.08,1-10.39-2.81-1.6-7.23,1-9.86,2.76a2.38,2.38,0,0,0-.31.17c-.91.62-6.6,4.19-7.23,2.74-.51-1.19,1.36-3.65,2-4.54A17.64,17.64,0,0,1,34.4,31,68,68,0,0,1,57.05,16.86a28.46,28.46,0,0,0-3.38-2.81c-9,3.6-17.91,9-24.35,16.1-2.35,2.61-5,8.06-1,10.36,2.8,1.6,7.21-1,9.83-2.75a2.38,2.38,0,0,0,.31-.17c.9-.61,6.58-4.17,7.21-2.73.51,1.19-1.36,3.64-2,4.52A16.47,16.47,0,0,1,42,41.09a67.66,67.66,0,0,1-22.44,14A27.09,27.09,0,0,0,23,58C31.9,54.37,40.73,49.05,47.12,42Z"></path><path class="cls-2" d="M43.14,54.87A36.78,36.78,0,0,1,28.75,61,26.7,26.7,0,0,0,31.7,62h0l.23.05a36.29,36.29,0,0,0,12.18-5.73C45,55.62,44,54.19,43.14,54.87Z"></path><path class="cls-2" d="M47,57.7a34.53,34.53,0,0,1-11.66,4.92l.3,0h.07l1.28.1H37c.42,0,.85,0,1.27,0h0a26.08,26.08,0,0,0,2.82-.15,32.23,32.23,0,0,0,6.81-3.51A.87.87,0,0,0,47,57.7Z"></path><path class="cls-2" d="M36.11,18.69c-.86.7.12,2.13,1,1.42a37.52,37.52,0,0,1,15.11-7c-.71-.43-1.45-.83-2.21-1.2A37.59,37.59,0,0,0,36.11,18.69Z"></path><path class="cls-2" d="M32.3,15.86c-.88.67.09,2.09,1,1.42a37.08,37.08,0,0,1,14.79-6.23,28.23,28.23,0,0,0-3.19-1A36.45,36.45,0,0,0,32.3,15.86Z"></path><path class="cls-4" d="M57.05,16.86h0A68,68,0,0,0,34.4,31a17.64,17.64,0,0,0-1.64,1.71c-.69.89-2.56,3.35-2,4.54.63,1.45,6.32-2.12,7.23-2.74a2.38,2.38,0,0,1,.31-.17c2.63-1.74,7-4.36,9.86-2.76,4,2.31,1.37,7.78-1,10.39C40.73,49.05,31.9,54.37,23,58h0c.5.34,1,.68,1.53,1h0A37.4,37.4,0,0,0,39.32,52c.87-.71,1.84.72,1,1.43a37.52,37.52,0,0,1-13.55,6.71h0c.65.31,1.31.6,2,.85h0a36.78,36.78,0,0,0,14.39-6.15c.89-.68,1.87.75,1,1.42A36.29,36.29,0,0,1,31.94,62h0a26.36,26.36,0,0,0,3.35.6h0A34.53,34.53,0,0,0,47,57.7a.87.87,0,0,1,1,1.43,32.23,32.23,0,0,1-6.81,3.51A26.79,26.79,0,0,0,57.05,16.86Z"></path><path class="cls-5" d="M43.63,39.38c.69-.88,2.56-3.33,2-4.52-.63-1.44-6.31,2.12-7.21,2.73a2.38,2.38,0,0,1-.31.17c-2.62,1.73-7,4.35-9.83,2.75-4-2.3-1.36-7.75,1-10.36,6.44-7.15,15.39-12.5,24.35-16.1h0q-.72-.5-1.47-1a37.52,37.52,0,0,0-15.11,7c-.86.71-1.84-.72-1-1.42A37.59,37.59,0,0,1,50,11.89c-.62-.3-1.26-.58-1.91-.84a37.08,37.08,0,0,0-14.79,6.23c-.9.67-1.87-.75-1-1.42A36.45,36.45,0,0,1,44.89,10a26.33,26.33,0,0,0-3.21-.6,34.86,34.86,0,0,0-12.2,5,.87.87,0,0,1-1-1.43,32.5,32.5,0,0,1,7-3.57l.33-.12A26.78,26.78,0,0,0,19.56,55.12h0A67.66,67.66,0,0,0,42,41.09,16.47,16.47,0,0,0,43.63,39.38Z"></path></svg> 