<svg width="652" height="118" viewBox="0 0 652 118" fill="none" xmlns="http://www.w3.org/2000/svg">
<g clip-path="url(#clip0_218_2)">
<path d="M139.2 -0.300049H20.5V118.4H139.2V-0.300049Z" fill="#FFDC00"/>
<path d="M52.6 30.1L110.1 58.7L52.5 87.9L89.5 58.8" fill="#231F20"/>
<path d="M203.4 86.8999H191.9L173.4 30.7H183.9L197.7 74.2L211.6 30.7H222" fill="#231F20"/>
<path d="M243.8 30.7H234V86.7999H243.8V30.7Z" fill="#231F20"/>
<path d="M297.8 78.6001C296.7 80.3001 292.9 84.0001 290.8 85.2001C289.3 86.0001 287.1 86.9001 285.2 86.9001H259.5V30.8H285.2C287 30.8 289.3 31.4001 290.9 32.4001C293 33.6001 296.5 37.6001 297.7 39.2001C298.9 40.9001 299.2 42.8001 299.2 44.6001V73.3C299.2 74.9 299 76.9001 297.8 78.6001ZM284.6 77.5001C284.6 77.5001 285.2 77.5001 285.3 77.4001C286.6 76.7001 289.4 74.2001 289.4 73.1001V44.8C289.4 44.8 289.4 44.5 289.3 44.3C288.2 42.4 286.3 40.7001 285.2 40.2001C285.1 40.1001 284.5 40.1001 284.4 40.1001H269.5V77.5001H284.6V77.5001Z" fill="#231F20"/>
<path d="M314.9 86.8999V30.7H350.2V40.0999H324.8V54.2999H348.4V63.7H324.8V77.4999H350.2V86.8999" fill="#231F20"/>
<path d="M405.801 78.8999C404.601 80.4999 400.901 84.5 399.001 85.7C397.501 86.6 395.101 87.3999 393.201 87.3999H378.901C376.801 87.3999 374.601 86.7 373.101 85.7C371.101 84.6 367.401 80.4999 366.301 78.8999C365.201 77.1999 364.801 75.2999 364.801 73.4999V44.0999C364.801 42.2999 365.201 40.4 366.301 38.7C367.401 37.1 371.201 33.0999 373.101 31.8999C374.601 30.9999 376.901 30.2 378.901 30.2H393.201C395.201 30.2 397.501 30.8999 399.001 31.8999C401.001 32.9999 404.601 37.1 405.801 38.7C406.901 40.4 407.301 42.2999 407.301 44.0999V73.4999C407.301 75.2999 407.001 77.1999 405.801 78.8999ZM374.601 73.3999C374.601 73.3999 374.601 73.6999 374.701 73.7999C375.801 75.4999 377.801 77.2999 378.801 77.7999C379.001 77.8999 379.201 77.8999 379.301 77.8999H392.801C392.801 77.8999 393.101 77.8999 393.301 77.7999C394.301 77.1999 396.301 75.4999 397.401 73.7999C397.501 73.5999 397.501 73.3999 397.501 73.3999V44.3999C397.501 44.3999 397.501 43.9999 397.401 43.8999C396.301 42.1999 394.301 40.2999 393.301 39.7999C393.101 39.6999 392.901 39.7 392.801 39.7H379.301C379.301 39.7 378.901 39.6999 378.801 39.7999C377.801 40.3999 375.801 42.1999 374.701 43.8999C374.601 44.0999 374.601 44.3999 374.601 44.3999V73.3999Z" fill="#231F20"/>
<path d="M441.5 40.0999V86.7999H431.6V40.0999H416.4V30.7H456.7V40.0999" fill="#231F20"/>
<path d="M507.299 57.7001C506.399 58.9001 503.499 61.7001 502.199 62.7001C501.399 63.3001 500.599 63.7001 499.799 64.0001L510.999 86.9001H500.299L489.899 64.7001H479.099V86.9001H469.199V30.8H495.599C497.799 30.8 500.399 31.6001 502.299 32.9001C503.599 33.8001 506.499 36.8001 507.399 38.1001C508.499 39.8001 509.099 41.8 509.099 43.8V52.1001C508.999 54.0001 508.399 56.0001 507.299 57.7001ZM499.099 43.8C499.099 43.8 499.099 43.3001 498.999 43.2001C498.399 42.2001 496.899 40.3001 495.999 40.2001H478.999V55.4001H495.499C496.299 55.4001 498.199 53.6 498.999 52.3C498.999 52.3 499.099 52.1001 499.099 51.9001V43.8Z" fill="#231F20"/>
<path d="M564.699 78.8999C563.499 80.4999 559.799 84.5 557.899 85.7C556.399 86.6 553.999 87.3999 552.099 87.3999H537.799C535.699 87.3999 533.499 86.7 531.999 85.7C529.999 84.6 526.299 80.4999 525.199 78.8999C524.099 77.1999 523.699 75.2999 523.699 73.4999V44.0999C523.699 42.2999 524.099 40.4 525.199 38.7C526.299 37.1 530.099 33.0999 531.999 31.8999C533.499 30.9999 535.799 30.2 537.799 30.2H551.999C553.999 30.2 556.299 30.8999 557.799 31.8999C559.799 32.9999 563.399 37.1 564.599 38.7C565.699 40.4 566.099 42.2999 566.099 44.0999V73.4999C566.199 75.2999 565.799 77.1999 564.699 78.8999ZM533.399 73.3999C533.399 73.3999 533.399 73.6999 533.499 73.7999C534.599 75.4999 536.599 77.2999 537.599 77.7999C537.799 77.8999 537.999 77.8999 538.099 77.8999H551.599C551.599 77.8999 551.899 77.8999 552.099 77.7999C553.099 77.1999 555.099 75.4999 556.199 73.7999C556.299 73.5999 556.299 73.3999 556.299 73.3999V44.3999C556.299 44.3999 556.299 43.9999 556.199 43.8999C555.099 42.1999 553.099 40.2999 552.099 39.7999C551.899 39.6999 551.699 39.7 551.599 39.7H538.099C538.099 39.7 537.699 39.6999 537.599 39.7999C536.599 40.3999 534.599 42.1999 533.499 43.8999C533.399 44.0999 533.399 44.3999 533.399 44.3999V73.3999Z" fill="#231F20"/>
<path d="M610.1 86.8999L590.7 49.5999V86.8999H580.9V30.7H591.5L610.7 68.4999V30.7H620.5V86.8999" fill="#231F20"/>
</g>
<defs>
<clipPath id="clip0_218_2">
<rect width="652" height="118" fill="white"/>
</clipPath>
</defs>
</svg>
