<?xml version="1.0" encoding="UTF-8" standalone="no"?>
<!-- Created with Inkscape (http://www.inkscape.org/) -->

<svg
   xmlns:dc="http://purl.org/dc/elements/1.1/"
   xmlns:cc="http://creativecommons.org/ns#"
   xmlns:rdf="http://www.w3.org/1999/02/22-rdf-syntax-ns#"
   xmlns:svg="http://www.w3.org/2000/svg"
   xmlns="http://www.w3.org/2000/svg"
   xmlns:sodipodi="http://sodipodi.sourceforge.net/DTD/sodipodi-0.dtd"
   xmlns:inkscape="http://www.inkscape.org/namespaces/inkscape"
   width="110.06708"
   height="55.272549"
   viewBox="0 0 29.121913 14.624195"
   version="1.1"
   id="svg676"
   inkscape:version="0.92.0 r15299"
   sodipodi:docname="freedom mobile.svg">
  <defs
     id="defs670">
    <clipPath
       id="clipPath176"
       clipPathUnits="userSpaceOnUse">
      <path
         inkscape:connector-curvature="0"
         id="path174"
         d="m 493.282,719.563 h 81.8 v 40.704 h -81.8 z" />
    </clipPath>
  </defs>
  <sodipodi:namedview
     id="base"
     pagecolor="#ffffff"
     bordercolor="#666666"
     borderopacity="1.0"
     inkscape:pageopacity="0.0"
     inkscape:pageshadow="2"
     inkscape:zoom="7.3532733"
     inkscape:cx="54.533537"
     inkscape:cy="27.136307"
     inkscape:document-units="mm"
     inkscape:current-layer="layer1"
     showgrid="false"
     units="px"
     fit-margin-top="0"
     fit-margin-left="0"
     fit-margin-right="0"
     fit-margin-bottom="0"
     inkscape:window-width="1280"
     inkscape:window-height="744"
     inkscape:window-x="-4"
     inkscape:window-y="-4"
     inkscape:window-maximized="1" />
  <metadata
     id="metadata673">
    <rdf:RDF>
      <cc:Work
         rdf:about="">
        <dc:format>image/svg+xml</dc:format>
        <dc:type
           rdf:resource="http://purl.org/dc/dcmitype/StillImage" />
        <dc:title></dc:title>
      </cc:Work>
    </rdf:RDF>
  </metadata>
  <g
     inkscape:label="Layer 1"
     inkscape:groupmode="layer"
     id="layer1"
     transform="translate(-145.50724,-190.82265)">
    <g
       id="g843"
       transform="translate(0.13229215,-0.13228922)">
      <g
         transform="matrix(0.35277777,0,0,-0.35277777,164.02952,191.08723)"
         id="g178">
        <path
           inkscape:connector-curvature="0"
           id="path180"
           style="fill:#427ac6;fill-opacity:1;fill-rule:nonzero;stroke:none"
           d="m 0,0 12.054,-18.65 c 0,0 -9.671,1.302 -12.487,6.578 C -3.249,-6.795 0,0 0,0" />
      </g>
      <g
         transform="matrix(0.35277777,0,0,-0.35277777,167.27282,191.3243)"
         id="g182">
        <path
           inkscape:connector-curvature="0"
           id="path184"
           style="fill:#427ac6;fill-opacity:1;fill-rule:nonzero;stroke:none"
           d="m 0,0 2.86,-17.978 c 0,0 -6.82,4.18 -7.184,9.069 C -4.687,-4.019 0,0 0,0" />
      </g>
      <g
         transform="matrix(0.35277777,0,0,-0.35277777,165.74748,194.46706)"
         id="g186">
        <path
           inkscape:connector-curvature="0"
           id="path188"
           style="fill:#205291;fill-opacity:1;fill-rule:nonzero;stroke:none"
           d="M 0,0 C 0.364,-4.889 7.184,-9.069 7.184,-9.069 L 0.101,1.89 C -0.006,1.28 -0.048,0.648 0,0" />
      </g>
      <g
         style="fill:#ee6b1e;fill-opacity:1"
         transform="matrix(0.35277777,0,0,-0.35277777,145.50724,196.40769)"
         id="g190">
        <path
           inkscape:connector-curvature="0"
           id="path192"
           style="fill:#ee6b1e;fill-opacity:1;fill-rule:nonzero;stroke:none"
           d="M 0,0 H 9.266 V -2.806 H 3.21 V -5.955 H 8.418 V -8.62 H 3.21 v -5.996 H 0 Z" />
      </g>
      <g
         style="fill:#ee6b1e;fill-opacity:1"
         transform="matrix(0.35277777,0,0,-0.35277777,149.20823,198.05989)"
         id="g194">
        <path
           inkscape:connector-curvature="0"
           id="path196"
           style="fill:#ee6b1e;fill-opacity:1;fill-rule:nonzero;stroke:none"
           d="m 0,0 h 3.008 v -1.332 l 0.04,-0.021 c 0.687,0.97 1.656,1.474 2.887,1.474 0.202,0 0.424,-0.02 0.646,-0.08 v -2.887 c -0.242,0.06 -0.545,0.101 -0.828,0.101 -1.069,0 -1.958,-0.324 -2.684,-1.171 V -9.932 H 0 Z" />
      </g>
      <g
         style="fill:#ee6b1e;fill-opacity:1"
         transform="matrix(0.35277777,0,0,-0.35277777,154.33131,199.413)"
         id="g198">
        <path
           inkscape:connector-curvature="0"
           id="path200"
           style="fill:#ee6b1e;fill-opacity:1;fill-rule:nonzero;stroke:none"
           d="M 0,0 C -0.182,1.07 -0.969,1.716 -1.958,1.716 -2.907,1.716 -3.735,1.13 -3.997,0 Z m -3.977,-1.938 c 0.343,-1.373 1.474,-1.999 2.887,-1.999 1.11,0 2.321,0.384 3.371,1.091 V -5.41 c -0.969,-0.606 -2.463,-0.909 -3.775,-0.909 -3.27,0 -5.632,2.039 -5.632,5.148 0,3.169 2.463,5.229 5.208,5.229 2.443,0 4.744,-1.615 4.744,-4.946 0,-0.344 -0.02,-0.788 -0.06,-1.05 z" />
      </g>
      <g
         style="fill:#ee6b1e;fill-opacity:1"
         transform="matrix(0.35277777,0,0,-0.35277777,158.32712,199.413)"
         id="g202">
        <path
           inkscape:connector-curvature="0"
           id="path204"
           style="fill:#ee6b1e;fill-opacity:1;fill-rule:nonzero;stroke:none"
           d="M 0,0 C -0.182,1.07 -0.969,1.716 -1.958,1.716 -2.907,1.716 -3.735,1.13 -3.997,0 Z m -3.977,-1.938 c 0.343,-1.373 1.474,-1.999 2.887,-1.999 1.11,0 2.321,0.384 3.371,1.091 V -5.41 c -0.969,-0.606 -2.463,-0.909 -3.775,-0.909 -3.27,0 -5.632,2.039 -5.632,5.148 0,3.169 2.463,5.229 5.208,5.229 2.443,0 4.744,-1.615 4.744,-4.946 0,-0.344 -0.02,-0.788 -0.06,-1.05 z" />
      </g>
      <g
         style="fill:#ee6b1e;fill-opacity:1"
         transform="matrix(0.35277777,0,0,-0.35277777,162.35002,199.01422)"
         id="g206">
        <path
           inkscape:connector-curvature="0"
           id="path208"
           style="fill:#ee6b1e;fill-opacity:1;fill-rule:nonzero;stroke:none"
           d="m 0,0 c -0.444,0.222 -0.989,0.384 -1.595,0.384 -1.615,0 -2.483,-1.212 -2.483,-2.706 0,-1.473 0.848,-2.624 2.362,-2.624 0.666,0 1.272,0.222 1.716,0.505 z m 0.02,-6.682 c -0.666,-0.464 -1.554,-0.767 -2.523,-0.767 -2.503,0 -4.663,1.938 -4.663,4.986 0,3.129 2.281,5.39 5.248,5.39 0.747,0 1.353,-0.141 1.878,-0.363 L 0,2.584 V 8.196 H 3.069 V -7.227 H 0.061 v 0.525 z" />
      </g>
      <g
         style="fill:#ee6b1e;fill-opacity:1"
         transform="matrix(0.35277777,0,0,-0.35277777,166.03319,200.70914)"
         id="g210">
        <path
           inkscape:connector-curvature="0"
           id="path212"
           style="fill:#ee6b1e;fill-opacity:1;fill-rule:nonzero;stroke:none"
           d="M 0,0 C 1.393,0 2.463,1.131 2.463,2.544 2.463,3.957 1.393,5.087 0,5.087 -1.393,5.087 -2.463,3.957 -2.463,2.544 -2.463,1.131 -1.393,0 0,0 m 0,7.732 c 3.17,0 5.532,-2.261 5.532,-5.188 0,-2.927 -2.362,-5.189 -5.532,-5.189 -3.169,0 -5.531,2.262 -5.531,5.189 0,2.927 2.362,5.188 5.531,5.188" />
      </g>
      <g
         style="fill:#ee6b1e;fill-opacity:1"
         transform="matrix(0.35277777,0,0,-0.35277777,173.16707,199.54123)"
         id="g214">
        <path
           inkscape:connector-curvature="0"
           id="path216"
           style="fill:#ee6b1e;fill-opacity:1;fill-rule:nonzero;stroke:none"
           d="m 0,0 c 0,0.747 -0.121,1.09 -0.363,1.353 -0.283,0.303 -0.646,0.424 -1.05,0.424 -0.707,0 -1.433,-0.364 -1.958,-0.828 0.02,-0.141 0.02,-0.303 0.02,-0.444 V -5.733 H -6.42 V 0 c 0,0.666 -0.1,1.07 -0.363,1.353 -0.282,0.303 -0.646,0.424 -1.05,0.424 -0.706,0 -1.433,-0.384 -1.938,-0.808 v -6.702 h -3.068 v 9.932 h 3.028 V 3.311 l 0.04,-0.02 c 0.768,0.646 1.777,1.13 2.988,1.13 1.07,0 2.301,-0.424 2.887,-1.413 1.07,0.949 2.241,1.413 3.492,1.413 1.111,0 1.979,-0.383 2.564,-0.989 C 2.786,2.786 3.069,1.918 3.069,0.505 V -5.733 H 0 Z" />
      </g>
      <g
         transform="matrix(0.35277777,0,0,-0.35277777,163.54442,204.17635)"
         id="g218">
        <path
           inkscape:connector-curvature="0"
           id="path220"
           style="fill:#205291;fill-opacity:1;fill-rule:nonzero;stroke:none"
           d="m 0,0 c 0,0.451 -0.074,0.659 -0.22,0.817 -0.171,0.184 -0.39,0.256 -0.635,0.256 -0.427,0 -0.867,-0.218 -1.184,-0.499 0.012,-0.086 0.012,-0.183 0.012,-0.269 V -3.467 H -3.883 V 0 c 0,0.403 -0.06,0.647 -0.219,0.817 -0.171,0.184 -0.391,0.256 -0.635,0.256 -0.427,0 -0.866,-0.23 -1.173,-0.487 v -4.053 h -1.854 v 6.006 h 1.831 V 2.002 L -5.91,1.99 c 0.465,0.39 1.075,0.683 1.808,0.683 0.647,0 1.391,-0.256 1.745,-0.854 0.647,0.574 1.356,0.854 2.113,0.854 0.67,0 1.196,-0.232 1.55,-0.598 C 1.684,1.684 1.855,1.159 1.855,0.305 V -3.467 H 0 Z" />
      </g>
      <g
         transform="matrix(0.35277777,0,0,-0.35277777,165.78131,204.88261)"
         id="g222">
        <path
           inkscape:connector-curvature="0"
           id="path224"
           style="fill:#205291;fill-opacity:1;fill-rule:nonzero;stroke:none"
           d="M 0,0 C 0.842,0 1.489,0.684 1.489,1.538 1.489,2.393 0.842,3.075 0,3.075 -0.842,3.075 -1.489,2.393 -1.489,1.538 -1.489,0.684 -0.842,0 0,0 m 0,4.675 c 1.917,0 3.345,-1.367 3.345,-3.137 0,-1.77 -1.428,-3.137 -3.345,-3.137 -1.917,0 -3.345,1.367 -3.345,3.137 0,1.77 1.428,3.137 3.345,3.137" />
      </g>
      <g
         transform="matrix(0.35277777,0,0,-0.35277777,168.36262,204.91697)"
         id="g226">
        <path
           inkscape:connector-curvature="0"
           id="path228"
           style="fill:#205291;fill-opacity:1;fill-rule:nonzero;stroke:none"
           d="m 0,0 c 1.001,0 1.514,0.781 1.514,1.66 0,0.879 -0.525,1.562 -1.44,1.562 -0.403,0 -0.757,-0.135 -1.026,-0.293 V 0.232 C -0.708,0.097 -0.341,0 0,0 m -2.807,7.959 h 1.855 V 4.37 l 0.025,-0.012 c 0.365,0.244 0.903,0.415 1.477,0.415 1.489,0 2.832,-1.16 2.832,-3.028 0,-1.904 -1.379,-3.247 -3.248,-3.247 -0.585,0 -1.073,0.134 -1.489,0.305 l -1.452,-0.244 z" />
      </g>
      <path
         inkscape:connector-curvature="0"
         id="path230"
         style="fill:#205291;fill-opacity:1;fill-rule:nonzero;stroke:none;stroke-width:0.35277778"
         d="m 169.97933,203.28064 h 0.6544 v 2.11879 h -0.6544 z m 0.32702,-1.04633 c 0.20709,0 0.37924,0.16756 0.37924,0.37465 0,0.20637 -0.17215,0.37429 -0.37924,0.37429 -0.20637,0 -0.37888,-0.16792 -0.37888,-0.37429 0,-0.20709 0.17251,-0.37465 0.37888,-0.37465" />
      <path
         inkscape:connector-curvature="0"
         id="path232"
         style="fill:#205291;fill-opacity:1;fill-rule:nonzero;stroke:none;stroke-width:0.35277778"
         d="m 171.17701,202.10907 h 0.6544 v 3.29036 h -0.6544 z" />
      <g
         transform="matrix(0.35277777,0,0,-0.35277777,173.76132,204.09884)"
         id="g234">
        <path
           inkscape:connector-curvature="0"
           id="path236"
           style="fill:#205291;fill-opacity:1;fill-rule:nonzero;stroke:none"
           d="M 0,0 C -0.109,0.647 -0.585,1.038 -1.184,1.038 -1.758,1.038 -2.258,0.683 -2.417,0 Z m -2.405,-1.172 c 0.208,-0.83 0.891,-1.209 1.746,-1.209 0.672,0 1.404,0.233 2.039,0.661 v -1.551 c -0.586,-0.367 -1.489,-0.55 -2.284,-0.55 -1.977,0 -3.405,1.234 -3.405,3.112 0,1.918 1.489,3.163 3.15,3.163 1.477,0 2.869,-0.977 2.869,-2.992 0,-0.207 -0.013,-0.475 -0.037,-0.634 z" />
      </g>
    </g>
  </g>
</svg>
